<?xml version="1.0" encoding="UTF-8"?><svg id="Layer_1" xmlns="http://www.w3.org/2000/svg" viewBox="0 0 121.5 143"><defs><style>.cls-1{fill:none;stroke:#fff;stroke-miterlimit:10;stroke-width:3.45px;}</style></defs><path class="cls-1" d="M119.78,1.77l-102.59-.04s.22,21.29-2.27,23.9c-2.5,2.61-4.19-5.09-8.81-2.78-4.62,2.31-3.03,5.79-1.63,12.56,1.4,6.77,2.94,10.7,1.41,13.92-1.54,3.22,.7,6.19,2.63,8.63,1.93,2.45,7.09,10.07,4.95,12.83-2.14,2.76-5.43,3.96-5.47,7.67-.04,3.71,.32,8.18-1.88,10.52-2.2,2.34-3.45,2.51-2.42,6.39,1.03,3.88,1.04,4.21,2.4,4.06,1.36-.14,4.51,2.81,2.38,5.21-2.13,2.4-4.63,.94-5.73,4.07-1.1,3.13-1.63,3.55,.26,4.26,1.89,.71,75.42,28.31,75.42,28.31h41.38V1.77h0Z"/></svg>