<?xml version="1.0" encoding="UTF-8"?><svg id="Layer_1" xmlns="http://www.w3.org/2000/svg" viewBox="0 0 110.99 110.99"><defs><style>.cls-1{stroke:#00ae81;}.cls-1,.cls-2{fill:none;stroke-linejoin:round;stroke-width:3.94px;}.cls-2{stroke:#1d3241;stroke-linecap:round;}</style></defs><polygon class="cls-1" points="25.76 77.3 25.76 69.37 55.49 61.44 85.23 69.37 85.23 77.3 25.76 77.3 25.76 77.3"/><path class="cls-2" d="M85.23,73.33h21.81c1.1,0,1.98,.89,1.98,1.98v7.93c0,1.1-.89,1.98-1.98,1.98h-17.84m-67.4,0H3.95c-1.1,0-1.98-.89-1.98-1.98v-7.93c0-1.1,.89-1.98,1.98-1.98H25.76m3.96,3.96v31.72m11.89-31.72v31.72m13.88-31.72v31.72m49.56-23.79v11.89M5.94,85.23v11.89m11.89-11.89v19.82m75.33-19.82v19.82m-11.89-27.75v31.72m-11.89-31.72v31.72M29.72,59.46v-9.91c0-17.52,11.54-31.72,25.77-31.72s25.77,14.2,25.77,31.72v9.91"/><polyline class="cls-1" points="55.49 17.83 55.49 1.97 67.39 1.97 67.39 9.9 55.49 9.9"/><path class="cls-2" d="M25.76,49.55h59.47m-43.61,7.93v-7.93m13.88,3.96v-3.96m13.88,7.93v-7.93"/></svg>