<?xml version="1.0" encoding="UTF-8"?><svg id="Layer_1" xmlns="http://www.w3.org/2000/svg" viewBox="0 0 88.37 135.25"><defs><style>.cls-1{fill:none;stroke:#fff;stroke-miterlimit:10;stroke-width:3.45px;}</style></defs><path class="cls-1" d="M18.96,2.06l-12.32-.3s-2.76,52.42,.06,56.17c2.82,3.76,5.89,6.17,4.02,10.87-1.87,4.7-9.89,15.72-8.92,18.79,.97,3.07,4.14,4.85,3.18,8.63-.96,3.78-.95,3.96-1.02,6.28-.06,2.32-.89,31.01-.89,31.01l83.5-.2-1.71-47.08s-3.98-5.9-4.98-4.39c-1,1.51-1.25,2.84-3.43,3.29-2.18,.45-14.47-.22-14.91,1.78-.44,2.01-2.37,3.39-3.09-.05-.72-3.43-4.95-6.79-6.84-10.43-1.89-3.65-4.44-12.31-7.04-11.48-2.6,.82-4.83,4.07-6.03,1.29-1.21-2.78,4-19.86,.95-20.4-3.05-.54-4.51-2.73-6.99-4.75-2.49-2.02-4.86-6.04-7.29-7.51-2.43-1.47-1.47-5.2-3.11-7.68-1.64-2.49-3.47-4.25-3.41-7.5,.06-3.25,.29-16.35,.29-16.35h0Z"/></svg>