<?xml version="1.0" encoding="UTF-8"?><svg id="Layer_1" xmlns="http://www.w3.org/2000/svg" viewBox="0 0 140.26 105.54"><defs><style>.cls-1{fill:none;stroke:#fff;stroke-miterlimit:10;stroke-width:3.45px;}</style></defs><path class="cls-1" d="M17.37,2.04s-.91,6.25-.64,9.73c.27,3.48,1.61,3.87-.74,12.88-2.35,9.01-1.2,10.19-2.12,15.64-.92,5.45-4.6,21.08-6.5,26.3-1.9,5.22-1.85,5.21-2.01,6.83-.16,1.62-1.14,3.42-2.27,4.63-1.12,1.21-1.97,2.13-.84,3.85,1.13,1.72,3.31,3.4,2.14,6.48-1.17,3.07-.24,10.9,2.13,11.05,2.37,.16,86.99,7.15,125.67,3.19,0,0-1.46-41.07-.58-43.16,.87-2.09,1.1-7.7-.55-8.5-1.65-.8-5.78-.43-2.25-7.16,3.53-6.73,10.73-23.93,9.59-27.46-1.14-3.53-4.15-3.1-5.54-5.23-1.39-2.13-1.33-2.13-3.75-2.14s-29.9-.05-29.9-.05c0,0-4.52,1-11.62,3.5-7.09,2.5-22.83,5.48-25.46,4.7-2.63-.78-5.5-1.88-10.46-.1-4.97,1.78-13.55,3.35-14.29-1.12-.74-4.48-1.57-11.89-5.29-12.09-3.72-.21-14.58-2.97-14.74-1.74h0Z"/></svg>