<?xml version="1.0" encoding="UTF-8"?><svg id="Layer_1" xmlns="http://www.w3.org/2000/svg" viewBox="0 0 139.12 90.3"><defs><style>.cls-1{fill:none;stroke:#fff;stroke-miterlimit:10;stroke-width:3.45px;}</style></defs><path class="cls-1" d="M132.61,1.75s-85.34,1.48-96.86,.24c0,0-1.96,1.2,0,4.39,1.96,3.19,2.13,7.36-.13,13.36-2.26,5.99-3.72,6.2-5.84,4.86-2.12-1.34-4.68-1.01-8.33-1.13-3.66-.12-7.6-1.75-11.89-3.77-4.29-2.03-7.96-4.69-7.83-2.56,.13,2.13,.01,10.21,1.77,12.67s3.5,4.88,3.45,9.33c-.05,4.45,.14,3.26,1.29,4.56s2.8,13.66,2.68,20.36c-.13,6.69-1.05,5.48,1.47,5.9,2.52,.42,10.64,.5,15.76,3.53,5.12,3.03,4.85,7.41,4.95,9.85,.09,2.44-1.01,3.76,2.63,4.53,3.65,.77,7.66,1.16,10.85,0,3.19-1.16,5.46-2.38,10.01-2.12,4.54,.26,2.91,2.99,7.42,1.74,4.51-1.25,13.56-2.3,21.63-4.82,8.07-2.52,13.39-4.44,15.25-4.46,1.87-.02,36.44-.56,36.44-.56,0,0-.13-3.96-1.16-6.25-1.03-2.29-1.45-4.21-1.49-5.62-.04-1.4-2.08-64-2.08-64h0Z"/></svg>