<?xml version="1.0" encoding="UTF-8"?>
<svg id="Layer_1" data-name="Layer 1" xmlns="http://www.w3.org/2000/svg" viewBox="0 0 600 150">
  <defs>
    <style>
      .cls-1, .cls-2 {
        fill: #fff;
      }

      .cls-2 {
        opacity: .67;
      }

      .cls-3 {
        opacity: .2;
      }

      .cls-4 {
        fill: #28aa85;
      }

      .cls-4, .cls-5 {
        fill-rule: evenodd;
      }

      .cls-6, .cls-5 {
        fill: #00ae82;
      }

      .cls-7 {
        fill: #223442;
      }
    </style>
  </defs>
  <rect class="cls-7" x="-46.81" y="-50.03" width="709.43" height="222.62"/>
  <g>
    <path class="cls-1" d="m43.6,45.41h-4.15l-1.02,2.45h-2.43l5.64-13h.14l5.64,13h-2.86l-.97-2.45Zm-.82-2.07l-1.21-3.04-1.26,3.04h2.46Z"/>
    <path class="cls-1" d="m49.25,35.34h3.74c1.6,0,2.91.31,3.94.93s1.78,1.42,2.25,2.4c.47.98.71,2.03.71,3.15,0,1.2-.28,2.26-.85,3.18-.57.92-1.33,1.62-2.29,2.12-.96.49-2.01.74-3.15.74h-4.35v-12.51Zm3.93,10.13c1.28,0,2.29-.33,3.04-.99.75-.66,1.12-1.6,1.12-2.84,0-1-.21-1.79-.62-2.38-.41-.59-.9-1-1.45-1.22-.55-.23-1.07-.34-1.56-.34h-2.01v7.77h1.46Z"/>
    <path class="cls-1" d="m71.86,35.34l-5.71,13.09-5.71-13.09h2.96l2.86,7.06,2.69-7.06h2.92Z"/>
    <path class="cls-1" d="m73.26,38.44c.57-.99,1.35-1.77,2.33-2.35.98-.58,2.04-.88,3.19-.88s2.21.29,3.19.88c.98.58,1.76,1.37,2.35,2.35.58.99.88,2.05.88,3.18s-.29,2.22-.88,3.2c-.58.97-1.37,1.75-2.35,2.32-.98.57-2.04.86-3.19.86s-2.22-.29-3.2-.86c-.98-.57-1.75-1.35-2.32-2.32-.57-.97-.86-2.04-.86-3.2s.29-2.19.86-3.18Zm2.21,5.19c.34.61.82,1.1,1.41,1.45.6.36,1.26.54,1.98.54s1.34-.18,1.92-.54c.58-.36,1.03-.84,1.36-1.45.33-.61.49-1.28.49-2.01s-.17-1.43-.51-2.04c-.34-.61-.8-1.1-1.39-1.45s-1.23-.54-1.95-.54-1.36.18-1.95.54c-.58.36-1.05.84-1.39,1.45-.34.61-.51,1.29-.51,2.04s.17,1.39.52,2.01Z"/>
    <path class="cls-1" d="m95.52,47.6c-.69.26-1.45.39-2.26.39-1.3,0-2.44-.28-3.4-.85-.96-.57-1.7-1.33-2.21-2.29-.51-.96-.77-2.01-.77-3.15,0-1.26.26-2.38.77-3.37s1.22-1.75,2.14-2.3c.92-.55,1.98-.82,3.18-.82.76,0,1.46.1,2.11.31.65.2,1.21.46,1.7.76l-.97,2.33c-.9-.68-1.81-1.02-2.75-1.02-.64,0-1.23.18-1.79.53-.56.35-1,.83-1.33,1.44-.33.61-.49,1.28-.49,2.01,0,.8.15,1.51.46,2.12s.74,1.08,1.31,1.42c.57.34,1.23.51,1.99.51.61,0,1.16-.1,1.65-.3s.87-.43,1.16-.71l1.02,2.21c-.32.26-.82.52-1.51.78Z"/>
    <path class="cls-1" d="m105.69,45.41h-4.15l-1.02,2.45h-2.43l5.64-13h.14l5.64,13h-2.86l-.97-2.45Zm-.82-2.07l-1.21-3.04-1.26,3.04h2.46Z"/>
    <path class="cls-1" d="m118.35,47.6c-.69.26-1.45.39-2.26.39-1.3,0-2.44-.28-3.4-.85-.96-.57-1.7-1.33-2.21-2.29-.51-.96-.77-2.01-.77-3.15,0-1.26.26-2.38.77-3.37s1.22-1.75,2.14-2.3c.92-.55,1.98-.82,3.18-.82.76,0,1.46.1,2.11.31.65.2,1.21.46,1.7.76l-.97,2.33c-.9-.68-1.81-1.02-2.75-1.02-.64,0-1.23.18-1.79.53-.56.35-1,.83-1.33,1.44-.33.61-.49,1.28-.49,2.01,0,.8.15,1.51.46,2.12s.74,1.08,1.31,1.42c.57.34,1.23.51,1.99.51.61,0,1.16-.1,1.65-.3s.87-.43,1.16-.71l1.02,2.21c-.32.26-.82.52-1.51.78Z"/>
    <path class="cls-1" d="m132.73,35.34l-4.69,8.62v3.89h-2.46v-3.89l-4.61-8.62h3.04l2.87,5.78,2.8-5.78h3.04Z"/>
    <path class="cls-1" d="m140.22,38.44c.57-.99,1.35-1.77,2.33-2.35.98-.58,2.04-.88,3.19-.88s2.21.29,3.19.88c.98.58,1.76,1.37,2.35,2.35.58.99.88,2.05.88,3.18s-.29,2.22-.88,3.2c-.58.97-1.37,1.75-2.35,2.32-.98.57-2.04.86-3.19.86s-2.22-.29-3.2-.86c-.98-.57-1.75-1.35-2.32-2.32-.57-.97-.86-2.04-.86-3.2s.29-2.19.86-3.18Zm2.21,5.19c.34.61.82,1.1,1.41,1.45.6.36,1.26.54,1.98.54s1.34-.18,1.92-.54c.58-.36,1.03-.84,1.36-1.45.33-.61.49-1.28.49-2.01s-.17-1.43-.51-2.04c-.34-.61-.8-1.1-1.39-1.45s-1.23-.54-1.95-.54-1.36.18-1.95.54c-.58.36-1.05.84-1.39,1.45-.34.61-.51,1.29-.51,2.04s.17,1.39.52,2.01Z"/>
    <path class="cls-1" d="m165.88,35.34v13.02h-.07l-8.75-7.9.05,7.4h-2.5v-13h.1l8.74,8.02-.05-7.53h2.48Z"/>
    <path class="cls-1" d="m182.22,35.34v2.38h-3.04v10.13h-2.46v-10.13h-2.92v-2.38h8.43Z"/>
    <path class="cls-1" d="m195.12,47.85h-2.46v-5.08h-5.59v5.08h-2.46v-12.51h2.46v5.05h5.59v-5.05h2.46v12.51Z"/>
    <path class="cls-1" d="m206.89,35.34v2.38h-6.07v2.67h5.37v2.38h-5.37v2.7h6.31v2.38h-8.77v-12.51h8.53Z"/>
  </g>
  <g>
    <polygon class="cls-4" points="239.85 49.08 218.37 106.26 209.43 82.47 221.98 49.08 212.42 49.08 240.12 24.49 249.16 49.08 239.85 49.08 239.85 49.08 239.85 49.08"/>
    <polygon class="cls-5" points="181.21 65.8 198.56 111.97 216.44 111.97 199.09 65.8 181.21 65.8 181.21 65.8 181.21 65.8"/>
  </g>
  <g class="cls-3">
    <g>
      <polygon class="cls-1" points="448.11 -13.62 448.11 -13.62 418.98 16.54 448.11 -13.62"/>
      <polygon class="cls-1" points="418.98 16.54 418.98 16.54 358.35 79.3 418.98 16.54 418.98 16.54"/>
      <path class="cls-1" d="m418.98,142.06l-60.63-62.76,60.63-62.76h0s29.13-30.15,29.13-30.15h-30.24l-89.76,92.92,80.93,83.77h30.24l-20.3-21.01Zm-3.1-139h0s0,0,0,0l-60.63,62.76L415.88,3.06Z"/>
      <polygon class="cls-1" points="415.88 3.06 415.88 3.06 415.88 3.06 415.88 3.06"/>
      <path class="cls-2" d="m418.98,16.54l-60.63,62.76,60.63,62.76,20.3,21.01h30.24l-35.42-36.66-15.12-15.65-30.39-31.46,30.39-31.46,15.12-15.65,44.25-45.81h-30.24l-29.13,30.15h0Zm27.26,143.24l-.12.12-.12-.12h.23Z"/>
    </g>
  </g>
  <g>
    <path class="cls-6" d="m86.95,112.41l-.16-29.35-14.24,23.89h-6.96l-14.16-23.1v28.56h-14.48v-55.38h12.9l19.46,31.96,18.99-31.96h12.9l.16,55.38h-14.4Z"/>
    <path class="cls-6" d="m130.1,109.8c-4.67-2.48-8.33-5.91-11-10.28-2.66-4.38-4-9.31-4-14.79s1.33-10.42,4-14.79c2.66-4.38,6.33-7.8,11-10.28,4.67-2.48,9.93-3.72,15.78-3.72s11.12,1.24,15.78,3.72c4.67,2.48,8.33,5.91,11,10.28,2.66,4.38,4,9.31,4,14.79s-1.33,10.42-4,14.79c-2.66,4.38-6.33,7.81-11,10.28-4.67,2.48-9.93,3.72-15.78,3.72s-11.11-1.24-15.78-3.72Zm23.38-11.23c2.27-1.32,4.06-3.18,5.38-5.58,1.32-2.4,1.98-5.15,1.98-8.27s-.66-5.87-1.98-8.27c-1.32-2.4-3.11-4.26-5.38-5.58-2.27-1.32-4.8-1.98-7.59-1.98s-5.33.66-7.59,1.98c-2.27,1.32-4.06,3.18-5.38,5.58-1.32,2.4-1.98,5.16-1.98,8.27s.66,5.87,1.98,8.27c1.32,2.4,3.11,4.26,5.38,5.58,2.27,1.32,4.8,1.98,7.59,1.98s5.33-.66,7.59-1.98Z"/>
    <path class="cls-6" d="m297.93,100.3v12.1h-44.46v-55.38h43.43v12.1h-27.93v9.34h24.6v11.71h-24.6v10.13h28.95Z"/>
  </g>
  <rect class="cls-6" x="446.24" y="59.51" width="120.08" height="30.99" rx="4.56" ry="4.56"/>
  <g>
    <path class="cls-1" d="m470,75.6h1.78v3.41c-.92.7-2.19,1.07-3.39,1.07-2.64,0-4.58-1.81-4.58-4.34s1.94-4.34,4.62-4.34c1.48,0,2.7.5,3.51,1.45l-1.25,1.15c-.61-.65-1.32-.95-2.17-.95-1.63,0-2.75,1.09-2.75,2.69s1.12,2.69,2.72,2.69c.53,0,1.02-.1,1.51-.36v-2.46Z"/>
    <path class="cls-1" d="m480.08,78.37v1.56h-6.5v-8.4h6.34v1.56h-4.41v1.82h3.9v1.51h-3.9v1.94h4.57Z"/>
    <path class="cls-1" d="m483.37,73.12h-2.69v-1.58h7.32v1.58h-2.69v6.81h-1.94v-6.81Z"/>
    <path class="cls-1" d="m492.37,76.24v-4.7h1.94v4.63c0,1.6.7,2.25,1.87,2.25s1.87-.66,1.87-2.25v-4.63h1.92v4.7c0,2.47-1.42,3.84-3.8,3.84s-3.8-1.37-3.8-3.84Z"/>
    <path class="cls-1" d="m509.17,74.58c0,1.87-1.4,3.03-3.65,3.03h-1.69v2.31h-1.94v-8.4h3.63c2.24,0,3.65,1.16,3.65,3.05Zm-1.97,0c0-.92-.6-1.46-1.79-1.46h-1.58v2.91h1.58c1.19,0,1.79-.54,1.79-1.45Z"/>
    <path class="cls-1" d="m510.56,71.53h3.81c2.75,0,4.63,1.66,4.63,4.2s-1.88,4.2-4.63,4.2h-3.81v-8.4Zm3.72,6.8c1.67,0,2.76-1,2.76-2.6s-1.09-2.6-2.76-2.6h-1.78v5.21h1.78Z"/>
    <path class="cls-1" d="m525.88,78.13h-3.9l-.74,1.8h-1.99l3.74-8.4h1.92l3.75,8.4h-2.04l-.74-1.8Zm-.61-1.48l-1.33-3.21-1.33,3.21h2.66Z"/>
    <path class="cls-1" d="m530.86,73.12h-2.69v-1.58h7.32v1.58h-2.69v6.81h-1.94v-6.81Z"/>
    <path class="cls-1" d="m543.04,78.37v1.56h-6.5v-8.4h6.34v1.56h-4.41v1.82h3.9v1.51h-3.9v1.94h4.57Z"/>
    <path class="cls-1" d="m543.93,79.1l.66-1.46c.71.52,1.76.88,2.77.88,1.15,0,1.62-.38,1.62-.9,0-1.57-4.88-.49-4.88-3.61,0-1.43,1.15-2.61,3.54-2.61,1.06,0,2.13.25,2.91.74l-.6,1.48c-.78-.44-1.58-.66-2.33-.66-1.15,0-1.59.43-1.59.96,0,1.55,4.88.48,4.88,3.56,0,1.4-1.16,2.6-3.56,2.6-1.33,0-2.67-.4-3.42-.97Z"/>
  </g>
</svg>