<?xml version="1.0" encoding="UTF-8"?><svg id="Layer_1" xmlns="http://www.w3.org/2000/svg" viewBox="0 0 94.43 79.12"><defs><style>.cls-1{fill:#07ae82;}</style></defs><path class="cls-1" d="M64.01,.03c7.07-.03,14.14-.03,21.21,0,5.28,.03,9.17,3.98,9.19,9.28,.02,8.89,.02,17.79,0,26.68-.02,5.94-3.76,9.67-9.69,9.69-5.44,0-10.87,0-16.3,0h-1.34c-.37,5.04,.43,9.63,3.39,13.66,3.73,5.08,8.84,7.44,15.05,7.72,3.44,.16,5.96,2.95,5.85,6.31-.11,3.28-2.83,5.86-6.27,5.75-2.04-.06-4.1-.26-6.1-.68-13.52-2.81-23.87-14.76-24.08-28.26-.21-13.71-.09-27.44-.04-41.16C54.9,3.95,58.92,.06,64.01,.03h0Z"/><path class="cls-1" d="M.04,21.43c0-3.95-.03-7.9,0-11.86C.1,3.81,3.93,.03,9.68,.02,16.52,0,23.36,0,30.2,.03c5.51,0,9.39,3.92,9.4,9.42,0,8.81,0,17.63,0,26.44,0,6.01-3.73,9.76-9.72,9.78-5.43,0-10.87,0-16.3,0h-1.35c0,1.36-.04,2.54,0,3.72,.16,3.86,1.4,7.36,3.78,10.42,3.71,4.74,8.67,6.96,14.6,7.24,3.47,.16,6.11,2.98,5.97,6.23-.16,3.43-2.87,5.96-6.43,5.84-2-.08-4.02-.27-5.99-.68C10.44,75.57,.42,63.7,.11,49.71-.09,40.29,.05,30.86,.04,21.43H.04Z"/></svg>