<?xml version="1.0" encoding="UTF-8"?>
<svg id="Layer_1" data-name="Layer 1" xmlns="http://www.w3.org/2000/svg" viewBox="0 0 600 150">
  <defs>
    <style>
      .cls-1 {
        font-size: 30px;
        letter-spacing: .07em;
      }

      .cls-1, .cls-2, .cls-3, .cls-4 {
        fill: #fff;
      }

      .cls-1, .cls-4 {
        font-family: JosefinSans-Bold, 'Josefin Sans';
        font-weight: 700;
      }

      .cls-5, .cls-6 {
        fill: #28aa85;
      }

      .cls-3 {
        opacity: .67;
      }

      .cls-7 {
        opacity: .2;
      }

      .cls-4 {
        font-size: 12px;
      }

      .cls-8 {
        letter-spacing: -.06em;
      }

      .cls-6, .cls-9 {
        fill-rule: evenodd;
      }

      .cls-10, .cls-9 {
        fill: #00ae82;
      }

      .cls-11 {
        letter-spacing: -.05em;
      }

      .cls-12 {
        fill: #223442;
      }
    </style>
  </defs>
  <rect class="cls-12" x="-46.81" y="-50.03" width="709.43" height="222.62"/>
  <text class="cls-1" transform="translate(35.8 54.21)"><tspan x="0" y="0">ON THE</tspan></text>
  <g>
    <polygon class="cls-6" points="239.85 55.61 218.37 112.8 209.43 89.01 221.98 55.61 212.42 55.61 240.12 31.03 249.16 55.61 239.85 55.61 239.85 55.61 239.85 55.61"/>
    <polygon class="cls-9" points="181.21 72.34 198.56 118.51 216.44 118.51 199.09 72.34 181.21 72.34 181.21 72.34 181.21 72.34"/>
  </g>
  <g class="cls-7">
    <g>
      <polygon class="cls-2" points="448.11 -13.62 448.11 -13.62 418.98 16.54 448.11 -13.62"/>
      <polygon class="cls-2" points="418.98 16.54 418.98 16.54 358.35 79.3 418.98 16.54 418.98 16.54"/>
      <path class="cls-2" d="m418.98,142.06l-60.63-62.76,60.63-62.76h0s29.13-30.15,29.13-30.15h-30.24l-89.76,92.92,80.93,83.77h30.24l-20.3-21.01Zm-3.1-139h0s0,0,0,0l-60.63,62.76L415.88,3.06Z"/>
      <polygon class="cls-2" points="415.88 3.06 415.88 3.06 415.88 3.06 415.88 3.06"/>
      <path class="cls-3" d="m418.98,16.54l-60.63,62.76,60.63,62.76,20.3,21.01h30.24l-35.42-36.66-15.12-15.65-30.39-31.46,30.39-31.46,15.12-15.65,44.25-45.81h-30.24l-29.13,30.15h0Zm27.26,143.24l-.12.12-.12-.12h.23Z"/>
    </g>
  </g>
  <g>
    <path class="cls-10" d="m86.95,118.95l-.16-29.35-14.24,23.89h-6.96l-14.16-23.1v28.56h-14.48v-55.38h12.9l19.46,31.96,18.99-31.96h12.9l.16,55.38h-14.4Z"/>
    <path class="cls-10" d="m130.1,116.34c-4.67-2.48-8.33-5.91-11-10.28-2.66-4.38-4-9.31-4-14.79s1.33-10.42,4-14.79c2.66-4.38,6.33-7.8,11-10.28,4.67-2.48,9.93-3.72,15.78-3.72s11.12,1.24,15.78,3.72c4.67,2.48,8.33,5.91,11,10.28,2.66,4.38,4,9.31,4,14.79s-1.33,10.42-4,14.79c-2.66,4.38-6.33,7.81-11,10.28-4.67,2.48-9.93,3.72-15.78,3.72s-11.11-1.24-15.78-3.72Zm23.38-11.23c2.27-1.32,4.06-3.18,5.38-5.58,1.32-2.4,1.98-5.15,1.98-8.27s-.66-5.87-1.98-8.27c-1.32-2.4-3.11-4.26-5.38-5.58-2.27-1.32-4.8-1.98-7.59-1.98s-5.33.66-7.59,1.98c-2.27,1.32-4.06,3.18-5.38,5.58-1.32,2.4-1.98,5.16-1.98,8.27s.66,5.87,1.98,8.27c1.32,2.4,3.11,4.26,5.38,5.58,2.27,1.32,4.8,1.98,7.59,1.98s5.33-.66,7.59-1.98Z"/>
    <path class="cls-10" d="m297.93,106.84v12.1h-44.46v-55.38h43.43v12.1h-27.93v9.34h24.6v11.71h-24.6v10.13h28.95Z"/>
  </g>
  <rect class="cls-5" x="453.15" y="65.44" width="112.78" height="27.72" rx="5" ry="5"/>
  <text class="cls-4" transform="translate(468.31 83.55)"><tspan x="0" y="0">GET UP</tspan><tspan class="cls-11" x="44.77" y="0">D</tspan><tspan class="cls-8" x="53.42" y="0">A</tspan><tspan x="61.06" y="0">TES</tspan></text>
</svg>