<?xml version="1.0" encoding="UTF-8"?>
<svg id="Layer_1" data-name="Layer 1" xmlns="http://www.w3.org/2000/svg" viewBox="0 0 600 150">
  <defs>
    <style>
      .cls-1, .cls-2 {
        fill: #fff;
      }

      .cls-2 {
        opacity: .67;
      }

      .cls-3 {
        opacity: .2;
      }

      .cls-4 {
        fill: #28aa85;
      }

      .cls-4, .cls-5 {
        fill-rule: evenodd;
      }

      .cls-6, .cls-5 {
        fill: #00ae82;
      }

      .cls-7 {
        fill: #223442;
      }
    </style>
  </defs>
  <rect class="cls-7" x="-2.01" y="-1.46" width="603.34" height="153.42"/>
  <g>
    <path class="cls-1" d="m38.81,37.59c1.01-1.74,2.38-3.12,4.11-4.16,1.73-1.03,3.6-1.54,5.62-1.54s3.89.52,5.62,1.54c1.73,1.03,3.11,2.42,4.14,4.16s1.54,3.61,1.54,5.61-.51,3.92-1.54,5.64-2.41,3.08-4.14,4.09c-1.73,1.01-3.61,1.52-5.62,1.52s-3.92-.5-5.64-1.52c-1.72-1.01-3.09-2.38-4.1-4.09s-1.51-3.6-1.51-5.64.5-3.87,1.51-5.61Zm3.9,9.15c.61,1.08,1.44,1.94,2.49,2.57s2.21.95,3.5.95,2.37-.32,3.39-.95c1.02-.63,1.82-1.48,2.4-2.55.58-1.07.87-2.25.87-3.55s-.3-2.52-.9-3.6c-.6-1.08-1.42-1.93-2.45-2.56-1.03-.63-2.17-.95-3.43-.95s-2.41.31-3.44.95c-1.03.63-1.84,1.48-2.44,2.56-.6,1.08-.9,2.28-.9,3.6s.3,2.46.92,3.54Z"/>
    <path class="cls-1" d="m86.2,32.13v22.98h-.12l-15.45-13.95.09,13.05h-4.41v-22.95h.18l15.42,14.16-.09-13.29h4.38Z"/>
    <path class="cls-1" d="m119.23,32.13v4.2h-5.37v17.88h-4.35v-17.88h-5.16v-4.2h14.88Z"/>
    <path class="cls-1" d="m144.1,54.21h-4.35v-8.97h-9.87v8.97h-4.35v-22.08h4.35v8.91h9.87v-8.91h4.35v22.08Z"/>
    <path class="cls-1" d="m166.96,32.13v4.2h-10.71v4.71h9.48v4.2h-9.48v4.77h11.13v4.2h-15.48v-22.08h15.06Z"/>
  </g>
  <g>
    <polygon class="cls-4" points="239.85 55.61 218.37 112.8 209.43 89.01 221.98 55.61 212.42 55.61 240.12 31.03 249.16 55.61 239.85 55.61 239.85 55.61 239.85 55.61"/>
    <polygon class="cls-5" points="181.21 72.34 198.56 118.51 216.44 118.51 199.09 72.34 181.21 72.34 181.21 72.34 181.21 72.34"/>
  </g>
  <g class="cls-3">
    <g>
      <polygon class="cls-1" points="443.77 -1.46 443.77 -1.46 417.2 24.93 443.77 -1.46"/>
      <polygon class="cls-1" points="417.2 24.93 417.2 24.93 361.88 79.86 417.2 24.93 417.2 24.93"/>
      <path class="cls-1" d="m417.2,134.79l-55.31-54.93,55.31-54.93h0s26.58-26.39,26.58-26.39h-27.59l-81.89,81.32,73.83,73.32h27.59l-18.52-18.39Zm-2.83-121.65h0s0,0,0,0l-55.31,54.93,55.31-54.93Z"/>
      <polygon class="cls-1" points="414.37 13.14 414.37 13.14 414.37 13.14 414.37 13.14"/>
      <path class="cls-2" d="m417.2,24.93l-55.31,54.93,55.31,54.93,18.52,18.39h27.59l-32.31-32.09-13.8-13.7-27.72-27.53,27.72-27.53,13.8-13.7L471.36-1.46h-27.59l-26.58,26.39h0Zm24.87,125.36l-.11.1-.11-.1h.21Z"/>
    </g>
  </g>
  <g>
    <path class="cls-6" d="m86.95,118.95l-.16-29.35-14.24,23.89h-6.96l-14.16-23.1v28.56h-14.48v-55.38h12.9l19.46,31.96,18.99-31.96h12.9l.16,55.38h-14.4Z"/>
    <path class="cls-6" d="m130.1,116.34c-4.67-2.48-8.33-5.91-11-10.28-2.66-4.38-4-9.31-4-14.79s1.33-10.42,4-14.79c2.66-4.38,6.33-7.8,11-10.28,4.67-2.48,9.93-3.72,15.78-3.72s11.12,1.24,15.78,3.72c4.67,2.48,8.33,5.91,11,10.28,2.66,4.38,4,9.31,4,14.79s-1.33,10.42-4,14.79c-2.66,4.38-6.33,7.81-11,10.28-4.67,2.48-9.93,3.72-15.78,3.72s-11.11-1.24-15.78-3.72Zm23.38-11.23c2.27-1.32,4.06-3.18,5.38-5.58,1.32-2.4,1.98-5.15,1.98-8.27s-.66-5.87-1.98-8.27c-1.32-2.4-3.11-4.26-5.38-5.58-2.27-1.32-4.8-1.98-7.59-1.98s-5.33.66-7.59,1.98c-2.27,1.32-4.06,3.18-5.38,5.58-1.32,2.4-1.98,5.16-1.98,8.27s.66,5.87,1.98,8.27c1.32,2.4,3.11,4.26,5.38,5.58,2.27,1.32,4.8,1.98,7.59,1.98s5.33-.66,7.59-1.98Z"/>
    <path class="cls-6" d="m297.93,106.84v12.1h-44.46v-55.38h43.43v12.1h-27.93v9.34h24.6v11.71h-24.6v10.13h28.95Z"/>
  </g>
  <rect class="cls-6" x="442.44" y="63.81" width="120.08" height="30.99" rx="4.56" ry="4.56"/>
  <g>
    <path class="cls-1" d="m465.12,79.17h1.78v3.41c-.92.7-2.19,1.07-3.39,1.07-2.64,0-4.58-1.81-4.58-4.34s1.94-4.34,4.62-4.34c1.48,0,2.7.5,3.51,1.45l-1.25,1.15c-.61-.65-1.32-.95-2.17-.95-1.63,0-2.75,1.09-2.75,2.69s1.12,2.69,2.72,2.69c.53,0,1.02-.1,1.51-.36v-2.46Z"/>
    <path class="cls-1" d="m475.2,81.94v1.56h-6.5v-8.4h6.34v1.56h-4.41v1.82h3.9v1.51h-3.9v1.94h4.57Z"/>
    <path class="cls-1" d="m478.49,76.68h-2.69v-1.58h7.32v1.58h-2.69v6.81h-1.94v-6.81Z"/>
    <path class="cls-1" d="m487.49,79.8v-4.7h1.94v4.63c0,1.6.7,2.25,1.87,2.25s1.87-.66,1.87-2.25v-4.63h1.92v4.7c0,2.47-1.42,3.84-3.8,3.84s-3.8-1.37-3.8-3.84Z"/>
    <path class="cls-1" d="m504.3,78.15c0,1.87-1.4,3.03-3.65,3.03h-1.69v2.31h-1.94v-8.4h3.63c2.24,0,3.65,1.16,3.65,3.05Zm-1.97,0c0-.92-.6-1.46-1.79-1.46h-1.58v2.91h1.58c1.19,0,1.79-.54,1.79-1.45Z"/>
    <path class="cls-1" d="m505.69,75.1h3.81c2.75,0,4.63,1.66,4.63,4.2s-1.88,4.2-4.63,4.2h-3.81v-8.4Zm3.72,6.8c1.67,0,2.76-1,2.76-2.6s-1.09-2.6-2.76-2.6h-1.78v5.21h1.78Z"/>
    <path class="cls-1" d="m521.01,81.7h-3.9l-.74,1.8h-1.99l3.74-8.4h1.92l3.75,8.4h-2.04l-.74-1.8Zm-.61-1.48l-1.33-3.21-1.33,3.21h2.66Z"/>
    <path class="cls-1" d="m525.99,76.68h-2.69v-1.58h7.32v1.58h-2.69v6.81h-1.94v-6.81Z"/>
    <path class="cls-1" d="m538.17,81.94v1.56h-6.5v-8.4h6.34v1.56h-4.41v1.82h3.9v1.51h-3.9v1.94h4.57Z"/>
    <path class="cls-1" d="m539.06,82.67l.66-1.46c.71.52,1.76.88,2.77.88,1.15,0,1.62-.38,1.62-.9,0-1.57-4.88-.49-4.88-3.61,0-1.43,1.15-2.61,3.54-2.61,1.06,0,2.13.25,2.91.74l-.6,1.48c-.78-.44-1.58-.66-2.33-.66-1.15,0-1.59.43-1.59.96,0,1.55,4.88.48,4.88,3.56,0,1.4-1.16,2.6-3.56,2.6-1.33,0-2.67-.4-3.42-.97Z"/>
  </g>
</svg>